<svg width="19" height="19" viewBox="0 0 19 19" fill="none" xmlns="http://www.w3.org/2000/svg">
<path d="M11.9475 3.07318C11.2466 3.77616 11.2466 4.91601 11.9475 5.619L13.2166 6.89191C13.4712 7.14728 13.7832 7.3099 14.1109 7.37978C14.4616 7.45456 14.7845 7.77059 14.6883 8.11626C14.2434 9.7154 13.3895 11.1703 12.2115 12.3365C11.0334 13.5028 9.57182 14.3401 7.97178 14.7653C7.683 14.842 7.42097 14.5757 7.37977 14.2796C7.32769 13.9054 7.15817 13.5445 6.87127 13.2568L5.60217 11.9838C4.90129 11.2808 3.76485 11.2808 3.06397 11.9838L0.525661 14.5297C-0.17522 15.2327 -0.17522 16.3726 0.525661 17.0755C1.0367 17.5881 1.52271 18.229 2.13983 18.6193C2.80193 19.0187 3.6668 18.9644 4.43948 18.99C5.71553 19.0323 7.70468 18.9469 8.98662 18.6062C11.2539 18.0036 13.3249 16.8171 14.9943 15.1645C16.6638 13.5119 17.8736 11.4504 18.5042 9.18437C18.9243 7.67415 19 6.36072 19 4.55509C19 3.65227 18.9873 2.76143 18.506 2.05708C18.4441 1.96664 18.3732 1.8806 18.2931 1.80026L17.024 0.52724C16.3231 -0.175747 15.1866 -0.175747 14.4858 0.52724L11.9475 3.07318Z" fill="white"/>
<path d="M8.03599 15.0069L8.03596 15.0069C7.79442 15.0711 7.57316 14.9867 7.41772 14.8498C7.26506 14.7154 7.16082 14.52 7.13215 14.314C7.08729 13.9917 6.94146 13.6812 6.69425 13.4333L6.69422 13.4333L5.42513 12.1603C5.42513 12.1603 5.42513 12.1603 5.42512 12.1603C4.82193 11.5553 3.8442 11.5553 3.24101 12.1603L0.702702 14.7062C0.0990992 15.3116 0.0990992 16.2936 0.702702 16.899C0.8472 17.044 0.999817 17.21 1.14978 17.3731C1.26047 17.4935 1.36972 17.6124 1.47319 17.72C1.73043 17.9876 1.98906 18.2277 2.27125 18.4066C2.55672 18.5781 2.89586 18.6583 3.27306 18.6961C3.53842 18.7226 3.8041 18.7271 4.07593 18.7318C4.19844 18.7339 4.32221 18.736 4.44776 18.7402C5.71538 18.7822 7.67575 18.696 8.92241 18.3646C11.1475 17.7732 13.18 16.6088 14.8184 14.9868L14.8184 14.9868C16.4569 13.3649 17.6444 11.3416 18.2633 9.11735C18.6744 7.63997 18.75 6.35342 18.75 4.55509C18.75 3.63712 18.7301 2.82816 18.2995 2.19813C18.2464 2.12033 18.1852 2.04618 18.116 1.9768L18.116 1.97677L16.8469 0.703743C16.2437 0.0987496 15.266 0.0987496 14.6628 0.703751L12.1245 3.24969C11.5209 3.8551 11.5209 4.83707 12.1245 5.44249L13.3936 6.7154C13.6131 6.93552 13.8813 7.0752 14.163 7.13527C14.3891 7.18348 14.607 7.30836 14.7572 7.48393L8.03599 15.0069ZM8.03599 15.0069C9.67826 14.5705 11.1783 13.7111 12.3874 12.5141M8.03599 15.0069L12.3874 12.5141M12.3874 12.5141C13.5964 11.3173 14.4727 9.82427 14.9292 8.18328L12.3874 12.5141Z" stroke="white" stroke-opacity="0.3" stroke-width="0.5"/>
</svg>
